<svg width="180" height="180" viewBox="0 0 180 180" fill="none" xmlns="http://www.w3.org/2000/svg">
<g clip-path="url(#clip0_14_19)">
<rect width="180" height="180" rx="20" fill="#1761FF"/>
<path d="M54.488 162.572C48.8113 162.572 43.3093 161.044 37.982 157.987C32.742 154.843 28.1133 149.865 24.096 143.053L27.895 140.171C31.9123 145.586 35.886 149.385 39.816 151.568C43.8333 153.664 47.5887 154.712 51.082 154.712C53.6147 154.712 55.929 154.275 58.025 153.402C60.121 152.529 61.7803 151.306 63.003 149.734C64.2257 148.075 64.837 146.153 64.837 143.97C64.837 141.612 64.182 139.298 62.872 137.027C61.562 134.756 59.3787 132.442 56.322 130.084L51.082 126.023C47.152 123.49 43.877 120.652 41.257 117.508C38.637 114.364 37.327 111.045 37.327 107.552C37.327 104.845 38.0693 102.487 39.554 100.478C41.0387 98.4693 43.0037 96.941 45.449 95.893C47.8943 94.7577 50.6017 94.19 53.571 94.19C54.095 94.19 54.619 94.2337 55.143 94.321C55.7543 94.321 56.4093 94.3647 57.108 94.452L59.466 101.657L58.68 102.574C55.274 102.661 52.392 103.316 50.034 104.539C47.7633 105.674 46.628 107.465 46.628 109.91C46.628 112.006 47.414 114.189 48.986 116.46C50.6453 118.731 53.047 121.045 56.191 123.403L61.169 127.333C65.5357 130.302 68.8107 133.49 70.994 136.896C73.1773 140.215 74.269 143.533 74.269 146.852C74.269 151.393 72.4787 155.149 68.898 158.118C65.4047 161.087 60.6013 162.572 54.488 162.572ZM43.353 138.206L38.113 131.656V130.477L68.767 115.019L74.269 121.569V122.879L43.353 138.206ZM100.245 162.31C99.1095 162.31 97.8869 162.048 96.5769 161.524C95.3542 161 94.1752 159.996 93.0399 158.511C91.6425 156.677 90.6819 154.668 90.1579 152.485C89.6339 150.302 89.3719 147.376 89.3719 143.708V95.107L90.1579 94.321L98.5419 97.596V147.769C98.5419 150.826 98.6729 152.922 98.9349 154.057C99.2842 155.192 99.6772 155.76 100.114 155.76C100.376 155.76 100.638 155.629 100.9 155.367C101.162 155.105 101.468 154.799 101.817 154.45L107.45 148.031H108.629L112.428 156.284C110.769 158.031 108.804 159.472 106.533 160.607C104.262 161.742 102.166 162.31 100.245 162.31Z" fill="white"/>
<path d="M116.41 140.826C113.266 140.826 110.777 140.346 108.943 139.385C107.109 138.424 106.192 136.896 106.192 134.8C106.192 134.014 106.367 133.053 106.716 131.918C107.065 130.783 107.677 129.516 108.55 128.119L109.336 126.809C110.122 125.499 110.995 124.451 111.956 123.665C113.004 122.792 114.183 122.355 115.493 122.355C117.152 122.355 118.506 123.141 119.554 124.713C120.689 126.285 121.606 129.167 122.305 133.359L119.685 131.525C124.139 130.652 127.938 129.167 131.082 127.071C134.313 124.975 136.759 122.617 138.418 119.997C140.077 117.29 140.907 114.539 140.907 111.744C140.907 108.775 139.99 106.417 138.156 104.67C136.409 102.836 133.833 101.919 130.427 101.919C127.72 101.919 125.1 102.443 122.567 103.491C120.122 104.539 117.807 105.893 115.624 107.552H114.445L109.074 99.954C110.908 98.2947 113.266 96.941 116.148 95.893C119.117 94.845 122.174 94.321 125.318 94.321C128.375 94.321 131.213 94.845 133.833 95.893C136.54 96.8537 138.942 98.2073 141.038 99.954C143.571 101.963 145.579 104.408 147.064 107.29C148.636 110.172 149.422 113.054 149.422 115.936C149.422 119.517 148.418 122.835 146.409 125.892C144.4 128.861 141.737 131.481 138.418 133.752C135.099 135.935 131.519 137.682 127.676 138.992C123.833 140.215 120.078 140.826 116.41 140.826ZM140.514 162.572C133.789 162.572 128.462 160.214 124.532 155.498C120.602 150.782 118.331 144.625 117.72 137.027L122.174 135.848C122.873 140.651 124.139 144.319 125.973 146.852C127.807 149.297 129.903 151 132.261 151.961C134.619 152.834 136.933 153.271 139.204 153.271C140.951 153.271 142.741 153.053 144.575 152.616C146.496 152.092 148.156 151.524 149.553 150.913L152.566 159.297L152.042 160.476C148.199 161.873 144.357 162.572 140.514 162.572Z" fill="white"/>
<path d="M71.125 88.441C68.6797 88.441 66.409 87.917 64.313 86.869C62.217 85.821 60.3393 84.4673 58.68 82.808C56.7587 80.974 55.1867 78.8343 53.964 76.389C52.8287 73.9437 52.261 71.2363 52.261 68.267C52.261 64.5117 53.3963 60.7127 55.667 56.87C58.025 52.94 61.6493 48.617 66.54 43.901L90.644 20.452H92.216L97.849 26.871L72.042 51.368C68.5487 54.6867 65.754 58.049 63.658 61.455C61.6493 64.861 60.645 68.4417 60.645 72.197C60.645 74.9917 61.2127 77.2187 62.348 78.878C63.5707 80.5373 65.2737 81.367 67.457 81.367C69.9897 81.367 72.042 80.1443 73.614 77.699C75.2733 75.2537 76.103 72.197 76.103 68.529C76.103 65.2103 75.448 61.717 74.138 58.049C72.828 54.381 70.994 50.8003 68.636 47.307C66.3653 43.7263 63.7453 40.495 60.776 37.613C57.894 34.731 54.8373 32.4603 51.606 30.801C48.462 29.0543 45.318 28.181 42.174 28.181C38.768 28.181 36.0607 29.1417 34.052 31.063C32.0433 32.9843 31.039 35.4297 31.039 38.399C31.039 40.757 31.6067 42.6347 32.742 44.032C33.8773 45.342 35.4493 45.997 37.458 45.997C39.6413 45.997 41.6937 45.1237 43.615 43.377C45.5363 41.6303 46.497 39.1413 46.497 35.91C46.497 34.5127 46.235 33.028 45.711 31.456C45.187 29.7967 44.2263 28.312 42.829 27.002L53.178 28.836L51.737 31.325C52.4357 32.4603 53.0033 33.7267 53.44 35.124C53.8767 36.5213 54.095 37.9623 54.095 39.447C54.095 43.4643 52.785 46.6957 50.165 49.141C47.545 51.499 44.3573 52.678 40.602 52.678C37.458 52.678 34.5323 51.892 31.825 50.32C29.1177 48.748 26.9343 46.652 25.275 44.032C23.6157 41.3247 22.786 38.4427 22.786 35.386C22.786 31.194 24.2707 27.6133 27.24 24.644C30.2967 21.6747 34.3577 20.19 39.423 20.19C43.4403 20.19 47.5013 21.238 51.606 23.334C55.798 25.3427 59.7717 28.05 63.527 31.456C67.3697 34.7747 70.7757 38.4863 73.745 42.591C75.7537 45.2983 77.5877 48.2677 79.247 51.499C80.9937 54.643 82.391 57.918 83.439 61.324C84.487 64.6427 85.011 67.9177 85.011 71.149C85.011 76.3017 83.701 80.4937 81.081 83.725C78.5483 86.869 75.2297 88.441 71.125 88.441Z" fill="white"/>
<path d="M105.672 66.957C104.711 66.957 103.663 66.6513 102.528 66.04C101.48 65.4287 100.17 64.206 98.598 62.372L95.978 59.228C93.4453 56.346 92.179 53.9443 92.179 52.023C92.179 50.451 92.7467 49.0973 93.882 47.962C95.1047 46.8267 97.1133 46.259 99.908 46.259C103.925 46.259 108.074 46.3463 112.353 46.521C116.72 46.6957 121.086 46.914 125.453 47.176C129.82 47.438 134.143 47.7 138.422 47.962L141.173 53.464L140.256 54.512H111.436V60.276C111.436 62.4593 110.868 64.1187 109.733 65.254C108.685 66.3893 107.331 66.957 105.672 66.957ZM143.138 88.31C142.003 88.31 140.78 88.048 139.47 87.524C138.247 87 137.068 85.9957 135.933 84.511C134.536 82.677 133.575 80.6683 133.051 78.485C132.527 76.3017 132.265 73.376 132.265 69.708V21.107L133.051 20.321L141.435 23.596V73.769C141.435 76.8257 141.566 78.9217 141.828 80.057C142.177 81.1923 142.57 81.76 143.007 81.76C143.269 81.76 143.531 81.629 143.793 81.367C144.055 81.105 144.361 80.7993 144.71 80.45L150.343 74.031H151.522L155.321 82.284C153.662 84.0307 151.697 85.4717 149.426 86.607C147.155 87.7423 145.059 88.31 143.138 88.31Z" fill="white"/>
</g>
<defs>
<clipPath id="clip0_14_19">
<rect width="180" height="180" rx="20" fill="white"/>
</clipPath>
</defs>
</svg>
